<svg viewBox="0 -31 512 512" xmlns="http://www.w3.org/2000/svg"><path d="m256 0c-140.699219 0-256 114.300781-256 255 0 73.199219 32.5 142.800781 87.398438 191.398438l4.203124 3.601562h328.796876l4.199218-3.601562c54.902344-48.597657 87.402344-118.199219 87.402344-191.398438 0-140.699219-115.300781-255-256-255zm0 0" fill="#5a5a5a"/><path d="m512 255c0 73.199219-32.5 142.800781-87.398438 191.398438l-4.203124 3.601562h-164.398438v-450c140.699219 0 256 114.300781 256 255zm0 0" fill="#444"/><path d="m343.351562 96.964844 24.960938 16.640625-33.269531 49.90625-24.960938-16.636719zm0 0"/><path d="m91 330h60v30h-60zm0 0" fill="#fdbf00"/><path d="m361 330h60v30h-60zm0 0" fill="#ff9f00"/><path d="m330.210938 180.789062c19.011718 19.015626 30.789062 45.265626 30.789062 74.210938v15h90v-15c0-53.761719-21.871094-102.511719-57.179688-137.820312l-62.820312 2.820312zm0 0" fill="#00cc71"/><path d="m118.179688 117.179688 2.820312 62.820312 60.789062.789062c19.015626-19.011718 45.265626-30.789062 74.210938-30.789062v-90c-53.761719 0-102.511719 21.871094-137.820312 57.179688zm0 0" fill="#ffd400"/><path d="m393.820312 117.179688c-35.308593-35.308594-84.058593-57.179688-137.820312-57.179688l-30 49.6875 30 40.3125c28.945312 0 55.195312 11.777344 74.210938 30.789062zm0 0" fill="#fdbf00"/><path d="m279.789062 272.859375h-47.578124l-28.84375-8.242187 52.632812-184.21875 52.632812 184.21875zm0 0" fill="#d9e7ec"/><path d="m279.789062 272.859375 28.84375-8.242187-52.632812-184.21875v192.460937zm0 0" fill="#b6c4cf"/><path d="m256 240c-41.398438 0-75 33.601562-75 75s33.601562 75 75 75 75-33.601562 75-75-33.601562-75-75-75zm0 0" fill="#b6c4cf"/><path d="m331 315c0 41.398438-33.601562 75-75 75v-150c41.398438 0 75 33.601562 75 75zm0 0" fill="#9facba"/><path d="m241 300h30v30h-30zm0 0" fill="#5a5a5a"/><path d="m256 300h15v30h-15zm0 0" fill="#444"/><path d="m61 255v15h90v-15c0-28.945312 11.777344-55.195312 30.789062-74.210938l-63.609374-63.609374c-35.308594 35.308593-57.179688 84.058593-57.179688 137.820312zm0 0" fill="#ff4d4d"/></svg>